/* XPM */
static char * Icone_xpm[] = {
"32 32 26 1",
" 	c None",
".	c #000000",
"+	c #030204",
"@	c #060509",
"#	c #3B3C3D",
"$	c #353537",
"%	c #2A292F",
"&	c #17171B",
"*	c #6E2D04",
"=	c #4F2106",
"-	c #3C3E41",
";	c #4C4C4C",
">	c #444446",
",	c #525354",
"'	c #666666",
")	c #6A6B6A",
"!	c #676868",
"~	c #727476",
"{	c #616262",
"]	c #983D02",
"^	c #86878A",
"/	c #B6B5B8",
"(	c #C8C8C9",
"_	c #FFFFFF",
":	c #FCFCFC",
"<	c #EFEFEF",
"                                ",
"                                ",
"                                ",
" ''''''  ''''''                 ",
" '...... '......    '''    '''  ",
" '..     '..   ..  '+...  '&..  ",
" '..     '..   .. '...... '...  ",
" '...... '......  '.@  ..@ '..  ",
" '...... '......  '.   '.. '..  ",
" '..     '..   .+ '.   '.. '..  ",
" '..     '..   .@  ..''@.  '..  ",
" '..     '......    ....   '..  ",
"  ..      ....@      ..    '..  ",
"                                ",
"                                ",
"      ;,,,,,,,,,,,,,,,,,,,      ",
"     ;))!!!)))))))))))!!'!,     ",
"    ;))))))!!!!!!!!!!!!)))!,    ",
"   ;))))!!!!!!!))))!))!!!!');   ",
"  ;~';,)',;))))))))))))))))!!;  ",
" ;~~,;{),,{))))))))))))!!!!''); ",
";))){))){!))))))))))!)))))))!'',",
";;;;;;;;;;;;;;;;;;;;;;;;;;;;;;;>",
"######>-#-######->>-#-###-#$$#$-",
"#@$/((/(/(-@@@@&>(^#;(^$,<{$,(,$",
"$@@{{;%;$%@@@@@&{^~$,~~$,^~$;^~$",
"#@+++@++++@@@@@&,/{#;/!$;()$>/'$",
"#@@*]=*=]=**@@@&,^)-;^'#,~)$;),$",
"#@@@@@@@@@@@@@@&,))-;~~-;!~$-!'$",
"#$$$$$$$$$$$##>>>>---#-#-------#",
"                                ",
"                                "};
